<?xml version="1.0" standalone="no"?><!DOCTYPE svg PUBLIC "-//W3C//DTD SVG 1.1//EN" "http://www.w3.org/Graphics/SVG/1.1/DTD/svg11.dtd"><svg t="1650935336745" class="icon" viewBox="0 0 1024 1024" version="1.1" xmlns="http://www.w3.org/2000/svg" p-id="15975" xmlns:xlink="http://www.w3.org/1999/xlink" width="500" height="500"><defs><style type="text/css">@font-face { font-family: feedback-iconfont; src: url("//at.alicdn.com/t/font_1031158_u69w8yhxdu.woff2?t=1630033759944") format("woff2"), url("//at.alicdn.com/t/font_1031158_u69w8yhxdu.woff?t=1630033759944") format("woff"), url("//at.alicdn.com/t/font_1031158_u69w8yhxdu.ttf?t=1630033759944") format("truetype"); }
</style></defs><path d="M937.7 830.1H86.3c-7.4 0-13.3 5.5-13.3 12.2v73.2c0 6.7 6 12.2 13.3 12.2h851.3c7.4 0 13.3-5.5 13.3-12.2v-73.2c0.1-6.8-5.8-12.2-13.2-12.2zM902.2 98.4H121.8c-26.9 0-48.8 21.8-48.8 48.8v588.7c0 26.9 21.9 48.8 48.8 48.8h780.4c26.9 0 48.8-21.9 48.8-48.8V147.2c0-27-21.9-48.8-48.8-48.8zM299.6 645.9h-85V523.1c0-13.5 10.9-24.4 24.4-24.4h36.2c13.5 0 24.4 10.9 24.4 24.4v122.8z m169.9-181.6v181.6h-85V464.4c-34.6-16.6-56.7-51.7-56.7-90.1 0-55.3 44.4-100.1 99.1-100.1 54.7 0 99.1 44.8 99.1 100.1 0.1 38.4-21.9 73.4-56.5 90z m169.9 181.6h-85V408.7c0-13.5 10.9-24.4 24.4-24.4H615c13.5 0 24.4 10.9 24.4 24.4v237.2z m170 0h-85V316.6c0-4.8 1.9-9.4 5.3-12.8 3.4-3.4 8-5.3 12.8-5.3h48.8c4.8 0 9.4 1.9 12.8 5.3 3.4 3.4 5.3 8 5.3 12.8v329.3z m0 0" p-id="15976"></path><path d="M427 331.3c-23.5 0-42.5 19.2-42.5 42.9s19 42.9 42.5 42.9 42.5-19.2 42.5-42.9c0-23.6-19-42.9-42.5-42.9z m0 0" p-id="15977"></path></svg>