<?xml version="1.0" standalone="no"?><!DOCTYPE svg PUBLIC "-//W3C//DTD SVG 1.1//EN" "http://www.w3.org/Graphics/SVG/1.1/DTD/svg11.dtd"><svg t="1562751368681" class="icon" viewBox="0 0 1069 1024" version="1.1" xmlns="http://www.w3.org/2000/svg" p-id="2726" xmlns:xlink="http://www.w3.org/1999/xlink" width="133.625" height="128"><defs><style type="text/css"></style></defs><path d="M960.206979 1024H43.574468A43.620948 43.620948 0 0 1 0 980.425532V117.871841a43.620948 43.620948 0 0 1 43.574468-43.574468h516.421356a20.334752 20.334752 0 0 1 0 40.669504H43.574468a2.904965 2.904965 0 0 0-2.904964 2.904964v862.565311a2.904965 2.904965 0 0 0 2.904964 2.904964h916.644131a2.904965 2.904965 0 0 0 2.904964-2.904964V515.340709a20.334752 20.334752 0 0 1 40.669504 0v465.096443a43.620948 43.620948 0 0 1-43.586088 43.562848z" p-id="2727"></path><path d="M518.687228 570.418837a20.334752 20.334752 0 0 1-14.362144-34.731756L1035.120204 5.949367a20.334752 20.334752 0 0 1 28.72429 28.782389l-530.795121 529.737714a20.276652 20.276652 0 0 1-14.362145 5.949367z" p-id="2728"></path></svg>