<?xml version="1.0" standalone="no"?><!DOCTYPE svg PUBLIC "-//W3C//DTD SVG 1.1//EN" "http://www.w3.org/Graphics/SVG/1.1/DTD/svg11.dtd"><svg t="1560161628171" class="icon" style="" viewBox="0 0 1024 1024" version="1.1" xmlns="http://www.w3.org/2000/svg" p-id="1977" xmlns:xlink="http://www.w3.org/1999/xlink" width="128" height="128"><defs><style type="text/css"></style></defs><path d="M426.4 486.9H149c-26.1 0-47.3-21.2-47.3-47.3V162.2c0-26.1 21.2-47.3 47.3-47.3h277.3c26.1 0 47.3 21.2 47.3 47.3v277.3c0 26.1-21.2 47.4-47.2 47.4zM149 143c-10.6 0-19.3 8.6-19.3 19.3v277.3c0 10.6 8.6 19.3 19.3 19.3h277.3c10.6 0 19.3-8.6 19.3-19.3V162.2c0-10.6-8.6-19.3-19.3-19.3H149zM875 486.9H597.6c-26.1 0-47.3-21.2-47.3-47.3V162.2c0-26.1 21.2-47.3 47.3-47.3H875c26.1 0 47.3 21.2 47.3 47.3v277.3c-0.1 26.1-21.3 47.4-47.3 47.4zM597.6 143c-10.6 0-19.3 8.6-19.3 19.3v277.3c0 10.6 8.6 19.3 19.3 19.3H875c10.6 0 19.3-8.6 19.3-19.3V162.2c0-10.6-8.6-19.3-19.3-19.3H597.6zM426.4 919.7H149c-26.1 0-47.3-21.2-47.3-47.3V595.1c0-26.1 21.2-47.3 47.3-47.3h277.3c26.1 0 47.3 21.2 47.3 47.3v277.3c0 26.1-21.2 47.3-47.2 47.3zM149 575.8c-10.6 0-19.3 8.6-19.3 19.3v277.3c0 10.6 8.6 19.3 19.3 19.3h277.3c10.6 0 19.3-8.6 19.3-19.3V595.1c0-10.6-8.6-19.3-19.3-19.3H149zM875 919.7H597.6c-26.1 0-47.3-21.2-47.3-47.3V595.1c0-26.1 21.2-47.3 47.3-47.3H875c26.1 0 47.3 21.2 47.3 47.3v277.3c-0.1 26.1-21.3 47.3-47.3 47.3zM597.6 575.8c-10.6 0-19.3 8.6-19.3 19.3v277.3c0 10.6 8.6 19.3 19.3 19.3H875c10.6 0 19.3-8.6 19.3-19.3V595.1c0-10.6-8.6-19.3-19.3-19.3H597.6z"  p-id="1978"></path></svg>