<?xml version="1.0" standalone="no"?><!DOCTYPE svg PUBLIC "-//W3C//DTD SVG 1.1//EN" "http://www.w3.org/Graphics/SVG/1.1/DTD/svg11.dtd"><svg t="1560154200414" class="icon" style="" viewBox="0 0 1024 1024" version="1.1" xmlns="http://www.w3.org/2000/svg" p-id="2051" xmlns:xlink="http://www.w3.org/1999/xlink" width="128" height="128"><defs><style type="text/css"></style></defs><path d="M440.32 154.9824l-19.2 4.9664a361.1648 361.1648 0 0 0-93.7472 38.8608l-17.1008 10.0864L254.976 153.6a25.6 25.6 0 0 0-36.2496 0L153.6 218.7264a25.6 25.6 0 0 0 0 36.2496l55.296 55.296-10.0864 17.1008a361.1648 361.1648 0 0 0-38.912 93.696l-4.9152 19.2512H76.8a25.6 25.6 0 0 0-25.6 25.6v92.16a25.6 25.6 0 0 0 25.6 25.6h78.1824l4.9664 19.2c8.4992 33.024 21.5552 64.512 38.8608 93.7472l10.0864 17.1008L153.6 769.024a25.6 25.6 0 0 0 0 36.2496L218.7264 870.4a25.6 25.6 0 0 0 36.2496 0l55.296-55.296 17.1008 10.0864c29.184 17.3056 60.7232 30.3616 93.696 38.912l19.2512 4.9152V947.2a25.6 25.6 0 0 0 25.6 25.6h92.16a25.6 25.6 0 0 0 25.6-25.6v-78.1824l19.2-4.9664a361.1648 361.1648 0 0 0 93.7472-38.8608l17.1008-10.0864L769.024 870.4a25.6 25.6 0 0 0 36.2496 0L870.4 805.2736a25.6 25.6 0 0 0 0-36.2496l-55.296-55.296 10.0864-17.1008c17.3056-29.184 30.3616-60.7232 38.912-93.696l4.9152-19.2512H947.2a25.6 25.6 0 0 0 25.6-25.6V465.92a25.6 25.6 0 0 0-25.6-25.6h-78.1824l-4.9664-19.2a361.1648 361.1648 0 0 0-38.8608-93.7472l-10.0864-17.1008L870.4 254.976a25.6 25.6 0 0 0 0-36.2496L805.2736 153.6a25.6 25.6 0 0 0-36.2496 0l-55.296 55.296-17.1008-10.0864a361.1648 361.1648 0 0 0-93.696-38.912l-19.2512-4.9152V76.8a25.6 25.6 0 0 0-25.6-25.6H465.92a25.6 25.6 0 0 0-25.6 25.6v78.1824z m-51.2-39.168V76.8A76.8 76.8 0 0 1 465.92 0h92.16a76.8 76.8 0 0 1 76.8 76.8v39.0144c24.3712 7.5264 47.872 17.3056 70.3488 29.184l27.648-27.648a76.8 76.8 0 0 1 108.544 0l65.1776 65.1776a76.8 76.8 0 0 1 0 108.6464l-27.5456 27.5968c11.8272 22.4768 21.6064 45.9776 29.184 70.3488h38.9632A76.8 76.8 0 0 1 1024 465.92v92.16a76.8 76.8 0 0 1-76.8 76.8h-39.0144a412.2624 412.2624 0 0 1-29.184 70.3488l27.648 27.648a76.8 76.8 0 0 1 0 108.544l-65.1776 65.1776a76.8 76.8 0 0 1-108.6464 0l-27.5968-27.5456a412.2624 412.2624 0 0 1-70.3488 29.184v38.9632a76.8 76.8 0 0 1-76.8 76.8H465.92a76.8 76.8 0 0 1-76.8-76.8v-39.0144a412.2624 412.2624 0 0 1-70.3488-29.184l-27.648 27.648a76.8 76.8 0 0 1-108.544 0l-65.1776-65.1776a76.8 76.8 0 0 1 0-108.6464l27.5456-27.5968a412.2624 412.2624 0 0 1-29.184-70.3488H76.8A76.8 76.8 0 0 1 0 558.08V465.92a76.8 76.8 0 0 1 76.8-76.8h39.0144c7.5264-24.3712 17.3056-47.872 29.184-70.3488l-27.648-27.648a76.8 76.8 0 0 1 0-108.544l65.1776-65.1776a76.8 76.8 0 0 1 108.6464 0l27.5968 27.5456a412.2624 412.2624 0 0 1 70.3488-29.184zM512 691.2a179.2 179.2 0 1 1 0-358.4 179.2 179.2 0 0 1 0 358.4z m0-51.2a128 128 0 1 0 0-256 128 128 0 0 0 0 256z" fill="#000000" p-id="2052"></path></svg>